<?xml version="1.0" encoding="UTF-8"?>
<svg width="26px" height="25px" viewBox="0 0 26 25" version="1.1" xmlns="http://www.w3.org/2000/svg" xmlns:xlink="http://www.w3.org/1999/xlink">
    <!-- Generator: Sketch 51.2 (57519) - http://www.bohemiancoding.com/sketch -->
    <title>google plus icon</title>
    <desc>Created with Sketch.</desc>
    <defs></defs>
    <g id="RECIPES" stroke="none" stroke-width="1" fill="none" fill-rule="evenodd">
        <g id="Recipe-detail-page---updated-4-sep" transform="translate(-246.000000, -646.000000)">
            <g id="google-plus-icon" transform="translate(246.000000, 646.000000)">
                <g transform="translate(0.666667, 0.000000)">
                    <circle id="XMLID_30_" fill="#000000" fill-rule="nonzero" cx="12.4115044" cy="12.4115044" r="12.4115044"></circle>
                    <g id="Group" transform="translate(4.203540, 7.743363)" fill-rule="nonzero">
                        <path d="M0.110619469,5.22123894 C0.0663716814,7.36725664 1.52654867,9.40265487 3.5619469,10.0663717 C5.46460177,10.7079646 7.80973451,10.2212389 9.07079646,8.60619469 C10,7.45575221 10.199115,5.92920354 10.1106195,4.51327434 C8.47345133,4.49115044 6.83628319,4.51327434 5.22123894,4.51327434 C5.22123894,5.08849558 5.22123894,5.66371681 5.22123894,6.26106195 C6.19469027,6.28318584 7.16814159,6.28318584 8.16371681,6.30530973 C7.92035398,7.1460177 7.34513274,7.94247788 6.50442478,8.25221239 C4.86725664,8.98230088 2.76548673,8.03097345 2.23451327,6.30530973 C1.61504425,4.6460177 2.63274336,2.65486726 4.31415929,2.16814159 C5.3539823,1.7920354 6.4380531,2.21238938 7.34513274,2.76548673 C7.80973451,2.34513274 8.2300885,1.88053097 8.65044248,1.4159292 C7.63274336,0.553097345 6.32743363,0.0442477876 4.97787611,0.154867257 C2.32300885,0.154867257 0.0221238938,2.58849558 0.110619469,5.22123894 Z" id="Shape" fill="#DC4E41"></path>
                        <path d="M13.2964602,3.03097345 C13.2964602,3.51769912 13.2964602,4.00442478 13.2743363,4.49115044 C12.7876106,4.49115044 12.300885,4.49115044 11.8141593,4.49115044 C11.8141593,4.97787611 11.8141593,5.46460177 11.8141593,5.95132743 C12.300885,5.95132743 12.7876106,5.95132743 13.2743363,5.95132743 C13.2743363,6.4380531 13.2743363,6.92477876 13.2743363,7.41150442 C13.7610619,7.41150442 14.2477876,7.41150442 14.7345133,7.41150442 C14.7345133,6.92477876 14.7345133,6.4380531 14.7345133,5.95132743 C15.2212389,5.95132743 15.7079646,5.95132743 16.1946903,5.95132743 C16.1946903,5.46460177 16.1946903,4.97787611 16.1946903,4.49115044 C15.7079646,4.49115044 15.2212389,4.49115044 14.7345133,4.49115044 C14.7345133,4.00442478 14.7345133,3.51769912 14.7345133,3.03097345 C14.2699115,3.03097345 13.7831858,3.03097345 13.2964602,3.03097345 Z" id="Shape" fill="#DC4E41"></path>
                        <g fill="#FFFFFF" id="Shape">
                            <path d="M0.110619469,5.22123894 C1.38777878e-16,2.58849558 2.32300885,0.154867257 4.95575221,0.110619469 C6.30530973,-6.9388939e-17 7.61061947,0.508849558 8.62831858,1.37168142 C8.2079646,1.83628319 7.78761062,2.27876106 7.32300885,2.72123894 C6.4159292,2.16814159 5.3539823,1.7699115 4.2920354,2.12389381 C2.61061947,2.61061947 1.57079646,4.60176991 2.21238938,6.26106195 C2.72123894,7.98672566 4.82300885,8.9380531 6.48230088,8.2079646 C7.34513274,7.89823009 7.89823009,7.12389381 8.14159292,6.26106195 C7.16814159,6.23893805 6.19469027,6.26106195 5.19911504,6.21681416 C5.19911504,5.64159292 5.19911504,5.06637168 5.19911504,4.46902655 C6.83628319,4.46902655 8.45132743,4.46902655 10.0884956,4.46902655 C10.199115,5.88495575 9.97787611,7.41150442 9.04867257,8.5619469 C7.78761062,10.199115 5.44247788,10.6637168 3.53982301,10.0221239 C1.54867257,9.40265487 0.0663716814,7.36725664 0.110619469,5.22123894 Z"></path>
                            <path d="M13.2964602,3.03097345 C13.7831858,3.03097345 14.2699115,3.03097345 14.7566372,3.03097345 C14.7566372,3.51769912 14.7566372,4.00442478 14.7566372,4.49115044 C15.2433628,4.49115044 15.7300885,4.49115044 16.2168142,4.49115044 C16.2168142,4.97787611 16.2168142,5.46460177 16.2168142,5.95132743 C15.7300885,5.95132743 15.2433628,5.95132743 14.7566372,5.95132743 C14.7566372,6.4380531 14.7566372,6.92477876 14.7566372,7.41150442 C14.2699115,7.41150442 13.7831858,7.41150442 13.2964602,7.41150442 C13.2964602,6.92477876 13.2964602,6.4380531 13.2964602,5.95132743 C12.8097345,5.95132743 12.3230088,5.95132743 11.8362832,5.95132743 C11.8362832,5.46460177 11.8362832,4.97787611 11.8362832,4.49115044 C12.3230088,4.49115044 12.8097345,4.49115044 13.2964602,4.49115044 C13.2964602,4.00442478 13.2964602,3.51769912 13.2964602,3.03097345 Z"></path>
                        </g>
                    </g>
                </g>
            </g>
        </g>
    </g>
</svg>