<?xml version="1.0" encoding="utf-8"?><svg xmlns="http://www.w3.org/2000/svg" xmlns:xlink="http://www.w3.org/1999/xlink"><symbol viewBox="-209 211 80 80" id="arrow-down" xmlns="http://www.w3.org/2000/svg"><path d="M-169 263.5c-.4 0-.7-.2-1-.4l-19.4-20c-.5-.5-.5-1.4 0-1.9l2.1-2.1c.5-.5 1.3-.6 1.8-.1l.1.1 16.4 16.8 16.4-16.9c.5-.5 1.3-.6 1.8-.1l.1.1 2.1 2.1c.5.5.5 1.4 0 1.9l-19.4 20c-.3.3-.6.5-1 .5z"/></symbol><symbol viewBox="-209 211 80 80" id="arrow-right" xmlns="http://www.w3.org/2000/svg"><path d="M-156.7 251c0 .4-.2.7-.4 1l-20 19.4c-.5.5-1.4.5-1.9 0l-2.1-2.1c-.5-.5-.6-1.3-.1-1.8l.1-.1 16.8-16.4-16.9-16.4c-.5-.5-.6-1.3-.1-1.8l.1-.1 2.1-2.1c.5-.5 1.4-.5 1.9 0l20 19.4c.3.3.5.6.5 1z"/></symbol><symbol viewBox="0 0 80 80" id="attractions" xmlns="http://www.w3.org/2000/svg"><path d="M40.5 60.52a26.15 26.15 0 1 1 26.15-26.15A26.18 26.18 0 0 1 40.5 60.52zm0-49.25a23.11 23.11 0 1 0 23.11 23.1 23.12 23.12 0 0 0-23.11-23.1z"/><path d="M40.47 42.77a8.33 8.33 0 1 1 8.33-8.33 8.34 8.34 0 0 1-8.33 8.33zm0-13.62a5.29 5.29 0 1 0 5.29 5.29 5.29 5.29 0 0 0-5.29-5.29z"/><path d="M55.31 80.22h-31a2.22 2.22 0 0 1-2.17-2.93L33 41.77a3 3 0 0 1 2.76-2H45a2.94 2.94 0 0 1 2.75 2.09l9.76 35.5a2.25 2.25 0 0 1-2.21 2.9zm-30-3h29l-9.44-34.45h-9zm19.52-34.59zM40.5 10.91a5.35 5.35 0 1 1 5.35-5.35 5.35 5.35 0 0 1-5.35 5.35zm0-7.65a2.31 2.31 0 1 0 2.31 2.3 2.31 2.31 0 0 0-2.31-2.3zM69 39.72a5.35 5.35 0 1 1 5.35-5.35A5.35 5.35 0 0 1 69 39.72zm0-7.65a2.31 2.31 0 1 0 2.31 2.3 2.3 2.3 0 0 0-2.31-2.3zM11.05 39.72a5.35 5.35 0 1 1 5.34-5.35 5.36 5.36 0 0 1-5.34 5.35zm0-7.65a2.31 2.31 0 1 0 2.3 2.3 2.3 2.3 0 0 0-2.3-2.3zM60.79 18.92a5.35 5.35 0 1 1 5.34-5.34 5.35 5.35 0 0 1-5.34 5.34zm0-7.65a2.31 2.31 0 1 0 2.31 2.31 2.3 2.3 0 0 0-2.31-2.31zM19.42 19.18a5.35 5.35 0 1 1 5.34-5.35 5.36 5.36 0 0 1-5.34 5.35zm0-7.66a2.31 2.31 0 1 0 2.3 2.31 2.31 2.31 0 0 0-2.3-2.31zM19.81 59.76a5.35 5.35 0 1 1 5.35-5.34 5.35 5.35 0 0 1-5.35 5.34zm0-7.65a2.31 2.31 0 1 0 2.31 2.31 2.31 2.31 0 0 0-2.31-2.31z"/><path d="M40.47 68.17a5.35 5.35 0 1 1 5.35-5.34 5.35 5.35 0 0 1-5.35 5.34zm0-7.65a2.31 2.31 0 1 0 2.31 2.31 2.31 2.31 0 0 0-2.31-2.31zM60.62 59.76A5.35 5.35 0 1 1 66 54.42a5.35 5.35 0 0 1-5.38 5.34zm0-7.65a2.31 2.31 0 1 0 2.31 2.31 2.32 2.32 0 0 0-2.31-2.31z"/><path d="M40.5 60.52A1.52 1.52 0 0 1 39 59V41.25a1.52 1.52 0 0 1 3 0V59a1.52 1.52 0 0 1-1.5 1.52zM40.5 28.05a1.52 1.52 0 0 1-1.5-1.52V9.39a1.52 1.52 0 0 1 3 0v17.14a1.52 1.52 0 0 1-1.5 1.52zM32.6 35.89H14.85a1.52 1.52 0 1 1 0-3H32.6a1.52 1.52 0 1 1 0 3zM64.46 35.89H47.32a1.52 1.52 0 1 1 0-3h17.14a1.52 1.52 0 1 1 0 3zM34.8 31a1.55 1.55 0 0 1-1.08-.44L21.17 18a1.52 1.52 0 1 1 2.15-2.14l12.55 12.52A1.52 1.52 0 0 1 34.8 31zM57.32 53.5a1.48 1.48 0 0 1-1.07-.45L44.13 40.93a1.52 1.52 0 0 1 2.15-2.15L58.4 50.9a1.53 1.53 0 0 1-1.08 2.6zM45.24 30.51a1.53 1.53 0 0 1-1.07-2.6l12.55-12.55a1.52 1.52 0 1 1 2.15 2.15L46.32 30.06a1.52 1.52 0 0 1-1.08.45zM22.72 53a1.52 1.52 0 0 1-1.07-2.59l12.12-12.09a1.52 1.52 0 1 1 2.14 2.15L23.79 52.59a1.51 1.51 0 0 1-1.07.41z"/></symbol><symbol viewBox="0 0 80 80" id="calendar" xmlns="http://www.w3.org/2000/svg"><defs><path d="M70.487 76.642H9.943a5.591 5.591 0 0 1-5.585-5.585V34.701h71.713v36.356a5.59 5.59 0 0 1-5.584 5.585M9.943 11.11h5.95v4.492a5.252 5.252 0 0 0-3.569 4.966 5.253 5.253 0 0 0 5.247 5.247 5.253 5.253 0 0 0 5.247-5.247 5.253 5.253 0 0 0-3.568-4.966V11.11h41.93v4.492a5.253 5.253 0 0 0-3.568 4.966 5.253 5.253 0 0 0 5.247 5.247 5.253 5.253 0 0 0 5.247-5.247 5.253 5.253 0 0 0-3.568-4.966V11.11h5.949a5.591 5.591 0 0 1 5.584 5.586v14.647H4.358V16.696a5.592 5.592 0 0 1 5.585-5.586m7.628 7.57c1.041 0 1.89.847 1.89 1.888a1.891 1.891 0 0 1-1.89 1.89 1.89 1.89 0 0 1-1.889-1.89c0-1.04.848-1.889 1.89-1.889m45.287 0a1.89 1.89 0 0 1 0 3.778 1.89 1.89 0 0 1-1.89-1.889c0-1.04.848-1.889 1.89-1.889m7.628-10.927h-5.95V1.68a1.68 1.68 0 0 0-3.357 0v6.073H19.25V1.68a1.68 1.68 0 0 0-3.358 0v6.073H9.943C5.013 7.752 1 11.764 1 16.696v54.361C1 75.99 5.012 80 9.943 80h60.544c4.931 0 8.942-4.011 8.942-8.943V16.696c0-4.932-4.011-8.944-8.942-8.944" id="ada"/></defs><use xlink:href="#ada"/></symbol><symbol viewBox="0 0 100 100" id="call" xmlns="http://www.w3.org/2000/svg"><path d="M92.37 71l-12-12a7.86 7.86 0 0 0-11.11 0L60 68.41A115.59 115.59 0 0 1 31.44 40l9.4-9.4a7.85 7.85 0 0 0 0-11.1l-12-12a7.86 7.86 0 0 0-11.11 0l-7.88 7.96A15.51 15.51 0 0 0 7 33.38 132.09 132.09 0 0 0 31.74 67.7a136.45 136.45 0 0 0 34.77 25.12 15.58 15.58 0 0 0 7.09 1.7A15.4 15.4 0 0 0 84.51 90l7.86-7.86a7.87 7.87 0 0 0 0-11.14zm-2.56 8.55L82 87.44a11.86 11.86 0 0 1-13.8 2.15 132.65 132.65 0 0 1-33.9-24.45 128.23 128.23 0 0 1-24.07-33.38A11.87 11.87 0 0 1 12.41 18l7.92-7.92a4.24 4.24 0 0 1 6 0l12 12a4.22 4.22 0 0 1 0 6L27.81 38.52a1.82 1.82 0 0 0-.21 2.3 119.47 119.47 0 0 0 31.56 31.44 1.8 1.8 0 0 0 2.3-.22l10.4-10.4a4.24 4.24 0 0 1 6 0l12 12a4.24 4.24 0 0 1-.05 5.95z"/></symbol><symbol viewBox="0 0 100 100" id="card" xmlns="http://www.w3.org/2000/svg"><path d="M93.61 30.53l-14-14-9.32-9.33-.93-.93a11.61 11.61 0 0 0-16.4 0L6.39 52.85a11.6 11.6 0 0 0 0 16.39l.93.93.59.59 22.73 22.73a11.59 11.59 0 0 0 16.4 0l46.57-46.57a11.6 11.6 0 0 0 0-16.39zM11.54 69.25l-.36-.36L69 11.06l6.79 6.79L18 75.67zM9 55.42L55.53 8.85a7.94 7.94 0 0 1 10.88-.34L8.63 66.3A8 8 0 0 1 9 55.42zm82-11.07L44.47 90.92a8 8 0 0 1-11.26 0L20.54 78.25l57.82-57.83L91 33.1a8 8 0 0 1 0 11.25z"/><path d="M48.46 59.51L30.92 77a1.82 1.82 0 0 0 2.57 2.58L51 62.08a1.82 1.82 0 0 0-2.57-2.57zM45.6 74.19L36.83 83a1.82 1.82 0 0 0 2.58 2.57l8.76-8.77a1.82 1.82 0 1 0-2.57-2.57zM73.49 33.64a7.08 7.08 0 0 0-2 4 7.06 7.06 0 1 0 8 8 7.06 7.06 0 1 0-6-12zm7.41 7.41a3.36 3.36 0 0 1-3 1 1.82 1.82 0 0 0-2.09 2.09 3.42 3.42 0 0 1-5.79 3 3.36 3.36 0 0 1-1-2.42 3.45 3.45 0 0 1 4-3.37 1.82 1.82 0 0 0 2.09-2.09 3.44 3.44 0 0 1 1-3 3.51 3.51 0 0 1 4.84 0 3.43 3.43 0 0 1-.05 4.79z"/></symbol><symbol viewBox="0 0 80 80" id="chat" xmlns="http://www.w3.org/2000/svg"><defs><path d="M62.561 14.05c.862 0 1.562.71 1.562 1.586 0 .875-.7 1.585-1.562 1.585H14.852c-.862 0-1.561-.71-1.561-1.585 0-.876.699-1.586 1.561-1.586h47.71zm0 12.695c.862 0 1.562.71 1.562 1.585 0 .876-.7 1.586-1.562 1.586H14.852c-.862 0-1.561-.71-1.561-1.586 0-.875.699-1.585 1.561-1.585h47.71zM38.707 39.44c.862 0 1.561.71 1.561 1.585 0 .876-.7 1.585-1.561 1.585H14.852c-.863 0-1.562-.71-1.562-1.585s.7-1.585 1.562-1.585h23.855zm38.17 5.454c0 5.582-4.472 10.124-9.97 10.124h-37.67a1.55 1.55 0 0 0-1.105.465l-13.99 14.205V56.577c0-.848-.657-1.546-1.492-1.585-5.343-.241-9.527-4.678-9.527-10.098v-31.6c0-5.583 4.472-10.123 9.97-10.123h53.814c5.498 0 9.97 4.54 9.97 10.122v31.6zM66.907 0H13.093C5.873 0 0 5.963 0 13.293v31.6c0 6.609 4.732 12.102 11.02 13.114v15.509c0 .641.38 1.22.963 1.464a1.535 1.535 0 0 0 1.701-.343l16.2-16.448h37.023c7.22 0 13.093-5.964 13.093-13.295v-31.6C80 5.962 74.127 0 66.907 0z" id="aga"/></defs><g transform="translate(0 2)"><mask id="agb"><use xlink:href="#aga"/></mask><use xlink:href="#aga"/></g></symbol><symbol viewBox="0 0 100 100" id="check" xmlns="http://www.w3.org/2000/svg"><path d="M40.18 79.51a1.82 1.82 0 0 1-1.51-.8L23.92 56.55a1.81 1.81 0 1 1 3-2l13.25 19.9 35.55-53.38a1.81 1.81 0 1 1 3 2l-37 55.64a1.83 1.83 0 0 1-1.54.8z"/></symbol><symbol viewBox="0 0 80 80" id="checklist" xmlns="http://www.w3.org/2000/svg"><path d="M11.186 20.823c-.48 0-.94-.191-1.28-.53L2.53 12.917a1.812 1.812 0 0 1 2.562-2.562l6.094 6.096L25.803 1.833a1.812 1.812 0 0 1 2.562 2.56l-15.898 15.9c-.34.339-.8.53-1.28.53M11.186 49.912c-.48 0-.94-.19-1.28-.53L2.53 42.007a1.812 1.812 0 0 1 2.562-2.562l6.094 6.095 14.617-14.617a1.812 1.812 0 0 1 2.562 2.56L12.467 49.383c-.34.34-.8.53-1.28.53M11.186 79c-.48 0-.94-.19-1.28-.53L2.53 71.095a1.811 1.811 0 0 1 2.562-2.56l6.094 6.093 14.617-14.617a1.81 1.81 0 1 1 2.562 2.56l-15.898 15.9c-.34.34-.8.53-1.28.53M76.311 13.622h-36.5a1.811 1.811 0 0 1 0-3.622h36.5a1.811 1.811 0 0 1 0 3.622M76.311 42.622h-36.5a1.811 1.811 0 0 1 0-3.622h36.5a1.811 1.811 0 0 1 0 3.622M76.311 71.621h-36.5a1.811 1.811 0 0 1 0-3.621h36.5a1.81 1.81 0 1 1 0 3.621"/></symbol><symbol viewBox="0 0 80 80" id="cinema" xmlns="http://www.w3.org/2000/svg"><path d="M76.49 80H3.58A3.55 3.55 0 0 1 0 76.46V3.54A3.55 3.55 0 0 1 3.58 0h72.91A3.55 3.55 0 0 1 80 3.54v72.92A3.55 3.55 0 0 1 76.49 80zM3.58 3a.52.52 0 0 0-.51.5v72.96a.52.52 0 0 0 .51.5h72.91a.51.51 0 0 0 .51-.5V3.54a.51.51 0 0 0-.51-.5z"/><path d="M17 77.84a1.52 1.52 0 0 1-1.52-1.52V3.41a1.52 1.52 0 1 1 3 0v72.91A1.52 1.52 0 0 1 17 77.84z"/><path d="M15.68 16.71H3.51a1.52 1.52 0 1 1 0-3h12.17a1.52 1.52 0 0 1 0 3zM15.68 29.22H3.51a1.52 1.52 0 0 1 0-3h12.17a1.52 1.52 0 0 1 0 3zM15.68 41.74H3.51a1.52 1.52 0 0 1 0-3h12.17a1.52 1.52 0 1 1 0 3zM15.68 54.26H3.51a1.52 1.52 0 1 1 0-3h12.17a1.52 1.52 0 0 1 0 3zM15.68 66.78H3.51a1.52 1.52 0 0 1 0-3h12.17a1.52 1.52 0 0 1 0 3zM63 78.19a1.52 1.52 0 0 1-1.52-1.51V3.77a1.52 1.52 0 1 1 3 0v72.91A1.52 1.52 0 0 1 63 78.19z"/><path d="M76.48 17.06H64.31a1.52 1.52 0 0 1 0-3h12.17a1.52 1.52 0 0 1 0 3zM76.48 29.58H64.31a1.52 1.52 0 0 1 0-3h12.17a1.52 1.52 0 0 1 0 3zM76.48 42.1H64.31a1.52 1.52 0 0 1 0-3h12.17a1.52 1.52 0 1 1 0 3zM76.48 54.61H64.31a1.52 1.52 0 1 1 0-3h12.17a1.52 1.52 0 1 1 0 3zM76.48 67.13H64.31a1.52 1.52 0 0 1 0-3h12.17a1.52 1.52 0 0 1 0 3zM33.8 32.59l12.6 7.28-12.6 7.27V32.59m-1.57-4.1c-.87 0-1.46.69-1.46 1.88v19c0 1.19.59 1.88 1.46 1.88a2.31 2.31 0 0 0 1.17-.36l16.45-9.5c1.45-.83 1.45-2.2 0-3L33.4 28.85a2.41 2.41 0 0 0-1.17-.36z"/></symbol><symbol viewBox="0 0 90 90" id="cross" xmlns="http://www.w3.org/2000/svg"><path d="M51.4 45l25.1-25.1c.7-.8.7-2 0-2.7l-3.7-3.6c-.8-.7-2-.7-2.7 0L45 38.6l-25.1-25c-.8-.7-2-.7-2.7 0l-3.6 3.6c-.7.8-.7 2 0 2.7l25 25.1-25 25.1c-.7.8-.7 2 0 2.7l3.6 3.6c.8.7 2 .7 2.7 0l25.1-25 25.1 25.1c.8.7 2 .7 2.7 0l3.6-3.6c.7-.8.7-2 0-2.7L51.4 45z"/></symbol><symbol viewBox="0 0 100 100" id="email" xmlns="http://www.w3.org/2000/svg"><path d="M95.09 21.27a2.27 2.27 0 0 0-.09-.52.13.13 0 0 0 0-.06 1.78 1.78 0 0 0-.23-.43v-.07a2.42 2.42 0 0 0-.32-.32h-.06a1.93 1.93 0 0 0-.43-.22h-.1a1.7 1.7 0 0 0-.51-.08H5.81a1.69 1.69 0 0 0-.5.08h-.1a2.26 2.26 0 0 0-.44.22 1.94 1.94 0 0 0-.32.32l-.06.07a1.75 1.75 0 0 0-.22.43.13.13 0 0 0 0 .06 1.83 1.83 0 0 0-.09.52H4V78.5a1.81 1.81 0 0 0 1.81 1.81h87.46a1.82 1.82 0 0 0 1.82-1.81V21.27zm-7.22 1.81L49.54 52 11.21 23zM7.62 76.69V24.91l40.83 30.84a1.81 1.81 0 0 0 2.19 0l40.82-30.84v51.78z"/></symbol><symbol viewBox="0 0 100 100" id="externallink" xmlns="http://www.w3.org/2000/svg"><path d="M66.6 41.8c-.6 0-1.2.5-1.2 1.2v34.8H24.2V34.4h32.1c.6 0 1.2-.5 1.2-1.2 0-.6-.5-1.2-1.2-1.2H23.1c-.6 0-1.2.5-1.2 1.2V79c0 .6.5 1.2 1.2 1.2h43.6c.6 0 1.2-.5 1.2-1.2V43c-.1-.7-.6-1.2-1.3-1.2z"/><path d="M79.4 20.6V20.3l-.1-.1c0-.1-.1-.1-.1-.2s-.1-.1-.2-.1l-.2-.1-.1-.1H58.2c-.6 0-1.2.5-1.2 1.2s.5 1.2 1.2 1.2h17.2L42.1 55.4c-.5.5-.5 1.2 0 1.7s1.2.5 1.7 0l33.3-33.3V41c0 .6.5 1.2 1.2 1.2s1.2-.5 1.2-1.2V20.9c0-.1 0-.2-.1-.3z"/></symbol><symbol viewBox="0 0 80 80" id="flights" xmlns="http://www.w3.org/2000/svg"><path d="M26.9 80a3.4 3.4 0 0 1-3.1-2c-2.71-6.66-6.06-14.07-7-15s-8.36-4.2-14.73-6.74a3.4 3.4 0 0 1-1-5.57l1.52-1.51a4.31 4.31 0 0 1 2.91-1.22A2.38 2.38 0 0 1 6 48l14.27 1.29.49-.62c3.35-4.29 7.6-9.2 12.35-14.27L9 18.48a3.4 3.4 0 0 1-1.73-3 3.45 3.45 0 0 1 1-2.41l3.28-3.28a4 4 0 0 1 2.78-1.14 3.77 3.77 0 0 1 1.13.16l32.92 9.86c.32-.32.62-.64.92-1l1-1C55.06 11.63 58.51 8 62 5.36 66.51 2 71.24 0 74.69 0a5.77 5.77 0 0 1 3.22.83 3.5 3.5 0 0 1 .68.53 3.37 3.37 0 0 1 .6.76A5.94 5.94 0 0 1 80 5.29c0 3.52-2 8.14-5.36 12.68-2.64 3.5-6.24 6.93-11.25 11.68l-2.07 2 9.87 32.94a4 4 0 0 1 .15 1.08 4 4 0 0 1-1.09 2.77l-3.33 3.32a3.34 3.34 0 0 1-2.43 1 3.41 3.41 0 0 1-3-1.76L45.64 46.92c-5.11 4.78-10 9-14.27 12.36l-.38.3-.23.17 1.3 14.35v.36a4.29 4.29 0 0 1-1.16 2.92L29.32 79a3.41 3.41 0 0 1-2.42 1zM5.48 50.94a1.37 1.37 0 0 0-.8.37l-1.5 1.5a.43.43 0 0 0-.14.26.36.36 0 0 0 .2.35c3.2 1.28 14 5.65 15.7 7.39s6.31 12.68 7.65 16a.39.39 0 0 0 .58 0l1.56-1.57a1.18 1.18 0 0 0 .3-.81l-1.45-16.09.68-.51.87-.66.38-.29c4.49-3.54 9.85-8.18 15.36-13.41l1.31-1.25 18 27.29a.38.38 0 0 0 .61.09l3.33-3.31a1 1 0 0 0 .23-.66.82.82 0 0 0 0-.21L57.87 30.71l3.39-3.22c4.94-4.69 8.48-8 10.94-11.34C75.13 12.24 77 8.08 77 5.29a2.88 2.88 0 0 0-.35-1.56l-.06-.12-.07-.07-.07-.06-.13-.08a2.86 2.86 0 0 0-1.63-.4c-2.77 0-6.93 1.83-10.84 4.75-3.31 2.48-6.68 6-11.35 11l-1 1.05c-.5.54-1 1.09-1.57 1.65l-.64.67-34.72-10.4a.91.91 0 0 0-.23 0 .93.93 0 0 0-.66.26l-3.27 3.27a.44.44 0 0 0-.13.27.36.36 0 0 0 .2.35l.11.07 27.19 17.9-1.25 1.32c-5.18 5.42-9.82 10.74-13.42 15.34-.33.42-.64.83-.94 1.23l-.51.67h-.86z"/></symbol><symbol viewBox="0 0 80 80" id="giftcards" xmlns="http://www.w3.org/2000/svg"><path d="M31 80a13.68 13.68 0 0 1-9.55-3.86l-17-16.42a13.75 13.75 0 0 1-.32-19.41l35-36.14a13.76 13.76 0 0 1 19.42-.32l17 16.42a13.74 13.74 0 0 1 .32 19.41l-35 36.14A13.7 13.7 0 0 1 31 80zM49 3.05h-.18a10.62 10.62 0 0 0-7.5 3.24l-35 36.14a10.71 10.71 0 0 0 .25 15.1l17 16.47a10.7 10.7 0 0 0 15.1-.25l35-36.14a10.7 10.7 0 0 0-.25-15.1L56.42 6A10.62 10.62 0 0 0 49 3.05z"/><path d="M47.11 31.4l-4.7-4.26a6.35 6.35 0 1 1 9-.44zm-.43-12.26h-.17a3.26 3.26 0 0 0-2.28 1.07 3.29 3.29 0 0 0 .23 4.65l2.44 2.22 2.21-2.44a3.3 3.3 0 0 0-.23-4.64 3.26 3.26 0 0 0-2.2-.86z"/><path d="M40.31 36a6.35 6.35 0 1 1 4.27-11l4.7 4.26L45 33.88A6.32 6.32 0 0 1 40.63 36zm0-9.64a3.29 3.29 0 1 0 2.44 5.51L45 29.39l-2.44-2.22a3.28 3.28 0 0 0-2.24-.85z"/><path d="M13.38 66a1.52 1.52 0 0 1-1.09-2.59l50.2-51.88a1.52 1.52 0 1 1 2.19 2.12l-50.2 51.89a1.56 1.56 0 0 1-1.1.46zM24.38 67.05a1.53 1.53 0 0 1-1.08-2.6L39.15 48.6a1.52 1.52 0 0 1 2.16 0 1.54 1.54 0 0 1 0 2.16L25.46 66.6a1.52 1.52 0 0 1-1.08.45zM29.4 71.88a1.53 1.53 0 0 1-1.08-2.6l8.47-8.47A1.53 1.53 0 1 1 39 63l-8.47 8.46a1.52 1.52 0 0 1-1.13.42z"/><path d="M47.13 45.71a1.52 1.52 0 0 1-1.53-1.52v-15a1.53 1.53 0 0 1 3 0v15a1.52 1.52 0 0 1-1.47 1.52z"/><path d="M62.08 30.76H47.13a1.53 1.53 0 1 1 0-3.05h14.95a1.53 1.53 0 1 1 0 3.05z"/></symbol><symbol viewBox="0 0 80 80" id="glasses" xmlns="http://www.w3.org/2000/svg"><defs><path d="M62.408 57.063c-6.055 0-11.264-3.694-13.491-8.946-.013-.03-.017-.062-.032-.091l-.01-.019a14.56 14.56 0 0 1-1.114-5.59c0-8.077 6.57-14.647 14.647-14.647 8.075 0 14.646 6.57 14.646 14.646s-6.57 14.647-14.646 14.647zm-44.815-6.396c-4.55 0-8.251-3.702-8.251-8.251 0-4.549 3.701-8.25 8.25-8.25 4.55 0 8.252 3.701 8.252 8.25 0 4.549-3.702 8.25-8.251 8.25zm22.422-8.32c-1.744 0-3.42.477-4.879 1.321.03-.414.05-.83.05-1.252 0-6.104-3.127-11.49-7.86-14.646H31.8c.525 0 1.011-.28 1.275-.735a8.202 8.202 0 0 1 7.07-4.089c2.902 0 5.611 1.567 7.073 4.09.263.454.748.734 1.275.734h4.18c-4.733 3.156-7.859 8.542-7.859 14.646 0 .415.019.826.048 1.234a9.736 9.736 0 0 0-4.848-1.302zM62.408 31.22c6.174 0 11.197 5.023 11.197 11.197 0 6.174-5.023 11.196-11.197 11.196-6.174 0-11.198-5.022-11.198-11.196 0-6.174 5.024-11.197 11.198-11.197zm-44.815 0c6.174 0 11.197 5.023 11.197 11.197 0 6.174-5.023 11.196-11.197 11.196-6.174 0-11.198-5.022-11.198-11.196 0-6.174 5.024-11.197 11.198-11.197zm0 25.844c-8.076 0-14.647-6.571-14.647-14.647S9.516 27.77 17.592 27.77 32.24 34.34 32.24 42.416s-6.57 14.647-14.647 14.647zm44.815-6.396c-4.55 0-8.252-3.702-8.252-8.251 0-4.549 3.701-8.25 8.252-8.25 4.55 0 8.251 3.701 8.251 8.25 0 4.549-3.702 8.25-8.251 8.25zm0-25.843c-.152 0-.3.007-.45.011-.038-.003-.075-.011-.113-.011H49.304A11.162 11.162 0 0 0 40.147 20c-3.657 0-7.091 1.829-9.156 4.824H18.45c-.06 0-.116.01-.173.018-.227-.01-.455-.018-.685-.018C7.892 24.824 0 32.715 0 42.416 0 52.117 7.892 60.01 17.592 60.01c7.216 0 13.427-4.368 16.138-10.596.03-.05.064-.096.089-.15a6.854 6.854 0 0 1 6.196-3.97 6.851 6.851 0 0 1 6.164 3.91c2.661 6.341 8.933 10.806 16.229 10.806 9.7 0 17.592-7.892 17.592-17.593s-7.891-17.592-17.592-17.592" id="apa"/></defs><use xlink:href="#apa" fill-rule="evenodd"/></symbol><symbol viewBox="0 0 100 100" id="hotels" xmlns="http://www.w3.org/2000/svg"><path d="M75 12.9H62.8v-2.7c0-1.9-1.4-3.4-3.2-3.4H39.9c-1.7 0-3.2 1.5-3.2 3.4v2.7H24.2c-2.2 0-3.9 1.8-3.9 3.9v.4c0 2.1 1.7 3.8 3.7 3.9v65.6h51.3V21.2c2-.2 3.6-1.9 3.6-3.9v-.4c.1-2.2-1.7-4-3.9-4zm-35.7-2.7c0-.4.3-.8.5-.8h19.8c.3 0 .5.3.5.8v2.3H39.3v-2.3zm0 61v-2.3c0-.4.3-.8.5-.8h19.8c.3 0 .5.3.5.8v2.3H39.3zm1.1 2.7h8c-.1.3-.2.5-.2.8v9.4h-7.9V73.9zM51 84.2v-9.4c0-.3-.1-.6-.2-.8h8v10.3H51zm21.8 0H61.5V73.7c.8-.3 1.3-1 1.3-1.9v-2.9c0-1.9-1.4-3.4-3.2-3.4H39.9c-1.7 0-3.2 1.5-3.2 3.4v2.9c0 .8.4 1.4 1.1 1.8v10.6H26.7V21.7h46.1v62.5zm3.5-66.9c0 .7-.6 1.3-1.3 1.3H24.2c-.7 0-1.3-.6-1.3-1.3v-.4c0-.7.6-1.3 1.3-1.3H75c.7 0 1.3.6 1.3 1.3v.4z"/><path d="M32.5 35.9h5.1c1.6 0 2.8-1.3 2.8-2.8V28c0-1.6-1.3-2.8-2.8-2.8h-5.1c-1.6 0-2.8 1.3-2.8 2.8v5c-.1 1.6 1.2 2.9 2.8 2.9zm-.2-8c0-.1.1-.2.2-.2h5.1c.1 0 .2.1.2.2V33c0 .1-.1.2-.2.2h-5.1c-.1 0-.2-.1-.2-.2v-5.1zM47.2 35.9h5.1c1.6 0 2.8-1.3 2.8-2.8V28c0-1.6-1.3-2.8-2.8-2.8h-5.1c-1.6 0-2.8 1.3-2.8 2.8v5c0 1.6 1.2 2.9 2.8 2.9zm-.2-8c0-.1.1-.2.2-.2h5.1c.1 0 .2.1.2.2V33c0 .1-.1.2-.2.2h-5.1c-.1 0-.2-.1-.2-.2v-5.1zM61.9 35.9H67c1.6 0 2.8-1.3 2.8-2.8V28c0-1.6-1.3-2.8-2.8-2.8h-5.1c-1.6 0-2.8 1.3-2.8 2.8v5c0 1.6 1.2 2.9 2.8 2.9zm-.2-8c0-.1.1-.2.2-.2H67c.1 0 .2.1.2.2V33c0 .1-.1.2-.2.2h-5.1c-.1 0-.2-.1-.2-.2v-5.1zM37.8 38h-5.1c-1.6 0-2.8 1.3-2.8 2.8v5.1c0 1.6 1.3 2.8 2.8 2.8h5.1c1.6 0 2.8-1.3 2.8-2.8v-5.1c0-1.6-1.3-2.8-2.8-2.8zm.2 7.9c0 .1-.1.2-.2.2h-5.1c-.1 0-.2-.1-.2-.2v-5.1c0-.1.1-.2.2-.2h5.1c.1 0 .2.1.2.2v5.1zM47.2 48.7h5.1c1.6 0 2.8-1.3 2.8-2.8v-5.1c0-1.6-1.3-2.8-2.8-2.8h-5.1c-1.6 0-2.8 1.3-2.8 2.8v5.1c0 1.6 1.2 2.8 2.8 2.8zm-.2-7.9c0-.1.1-.2.2-.2h5.1c.1 0 .2.1.2.2v5.1c0 .1-.1.2-.2.2h-5.1c-.1 0-.2-.1-.2-.2v-5.1zM67.2 38h-5.1c-1.6 0-2.8 1.3-2.8 2.8v5.1c0 1.6 1.3 2.8 2.8 2.8h5.1c1.6 0 2.8-1.3 2.8-2.8v-5.1c0-1.6-1.3-2.8-2.8-2.8zm.2 7.9c0 .1-.1.2-.2.2h-5.1c-.1 0-.2-.1-.2-.2v-5.1c0-.1.1-.2.2-.2h5.1c.1 0 .2.1.2.2v5.1zM37.8 51.4h-5.1c-1.6 0-2.8 1.3-2.8 2.8v5.1c0 1.6 1.3 2.8 2.8 2.8h5.1c1.6 0 2.8-1.3 2.8-2.8v-5.1c0-1.6-1.3-2.8-2.8-2.8zm.2 7.9c0 .1-.1.2-.2.2h-5.1c-.1 0-.2-.1-.2-.2v-5.1c0-.1.1-.2.2-.2h5.1c.1 0 .2.1.2.2v5.1zM47.2 62.1h5.1c1.6 0 2.8-1.3 2.8-2.8v-5.1c0-1.6-1.3-2.8-2.8-2.8h-5.1c-1.6 0-2.8 1.3-2.8 2.8v5.1c0 1.5 1.2 2.8 2.8 2.8zm-.2-7.9c0-.1.1-.2.2-.2h5.1c.1 0 .2.1.2.2v5.1c0 .1-.1.2-.2.2h-5.1c-.1 0-.2-.1-.2-.2v-5.1zM67.2 51.4h-5.1c-1.6 0-2.8 1.3-2.8 2.8v5.1c0 1.6 1.3 2.8 2.8 2.8h5.1c1.6 0 2.8-1.3 2.8-2.8v-5.1c0-1.6-1.3-2.8-2.8-2.8zm.2 7.9c0 .1-.1.2-.2.2h-5.1c-.1 0-.2-.1-.2-.2v-5.1c0-.1.1-.2.2-.2h5.1c.1 0 .2.1.2.2v5.1z"/></symbol><symbol viewBox="0 0 100 100" id="location" xmlns="http://www.w3.org/2000/svg"><path d="M54.07 3a33.77 33.77 0 0 0-29.15 50.94 1.5 1.5 0 0 0 .2.4l.59.9c.19.3.38.6.56.85l26.29 39.84a1.8 1.8 0 0 0 1.51.82 1.8 1.8 0 0 0 1.51-.82l25.76-39.12A33.48 33.48 0 0 0 83.18 54l.3-.45a2.31 2.31 0 0 0 .18-.35A33.81 33.81 0 0 0 54.07 3zm26.3 48.63l-.06.13-.2.31c-.51.87-1.08 1.73-1.74 2.64l-24.3 36.94-24.8-37.59c-.18-.25-.35-.52-.52-.78l-.41-.63c0-.09-.08-.17-.13-.26a30.19 30.19 0 1 1 52.16-.73z"/><path d="M54.07 19.31a17.37 17.37 0 1 0 17.37 17.37 17.39 17.39 0 0 0-17.37-17.37zm0 31.12a13.75 13.75 0 1 1 13.75-13.75 13.77 13.77 0 0 1-13.75 13.75z"/></symbol><symbol id="looking-after-you" viewBox="0 0 80 80" xmlns="http://www.w3.org/2000/svg"><defs><style/></defs><path d="M5.31 68.12a36.64 36.64 0 0 1 2.93-12.88 8.87 8.87 0 0 1 5.23-5l12.37-4.13a8.15 8.15 0 0 0 5.32-5.65 16.57 16.57 0 0 0 13.93 0 8.18 8.18 0 0 0 5.31 5.62l12.37 4.13a8.79 8.79 0 0 1 5 4.52 9.16 9.16 0 0 1 1.57-.14 9.37 9.37 0 0 1 1.71.16c-.11-.26-.21-.54-.32-.79a11.91 11.91 0 0 0-7-6.59L51.34 43.3a5.2 5.2 0 0 1-3.51-4.41 15 15 0 0 0 1.57-1.3c3.34-3.22 5.1-7.76 5.1-13.15V14a13.22 13.22 0 0 0-7.25-11.83 20.17 20.17 0 0 0-18.19 0A13.21 13.21 0 0 0 21.81 14v10.44c0 5.39 1.76 9.93 5.1 13.15a15.27 15.27 0 0 0 1.51 1.26 5.19 5.19 0 0 1-3.52 4.45l-12.37 4.12a12 12 0 0 0-7 6.59 40 40 0 0 0-3.24 15.61 1.49 1.49 0 0 0 1.49 1.49h48.43a18.4 18.4 0 0 1-1.62-3zM24.8 24.44V14a10.24 10.24 0 0 1 5.62-9.17 17.18 17.18 0 0 1 15.47 0A10.24 10.24 0 0 1 51.51 14v10.44c0 10-6.92 14.6-13.35 14.6S24.8 34.47 24.8 24.44z"/><path d="M54 68.12h-3.41a18.4 18.4 0 0 0 1.62 3h3.86a17.29 17.29 0 0 1-2.07-3z"/><path d="M71.05 54.8a9.37 9.37 0 0 0-1.71-.16 9.16 9.16 0 0 0-1.57.14 8.56 8.56 0 0 0-4.2 2.08 8.58 8.58 0 0 0-5.77-2.22 7.83 7.83 0 0 0-6.53 3.09A10 10 0 0 0 50 66.49a15 15 0 0 0 .59 1.63H54a12.86 12.86 0 0 1-1-2.49 6.94 6.94 0 0 1 .78-6 4.79 4.79 0 0 1 4-1.86 5.49 5.49 0 0 1 4.5 2.35 1.61 1.61 0 0 0 2.54 0A5.51 5.51 0 0 1 69 57.75h.36a5.23 5.23 0 0 1 3 .85 5.75 5.75 0 0 1 2.25 4.65 7.73 7.73 0 0 1-.8 3.42 22.71 22.71 0 0 1-2.92 4.46 21 21 0 0 1-7.33 5.7 22.54 22.54 0 0 1-7.5-5.7h-3.85a25.41 25.41 0 0 0 10.54 8.72 2.11 2.11 0 0 0 .82.17 2 2 0 0 0 .81-.17A24.84 24.84 0 0 0 76.59 68a10.69 10.69 0 0 0 1.12-4.82 8.29 8.29 0 0 0-6.66-8.38z"/></symbol><symbol viewBox="0 0 100 100" id="looking-after-you-old" xmlns="http://www.w3.org/2000/svg"><path d="M89.59 72.26a14.41 14.41 0 0 0-8.5-8l-15-5a6.28 6.28 0 0 1-4.26-5.34 20.52 20.52 0 0 0 1.91-1.58c4-3.9 6.18-9.41 6.18-15.94V23.75a16 16 0 0 0-8.8-14.33 24.38 24.38 0 0 0-22 0 16 16 0 0 0-8.79 14.33v12.66c0 6.53 2.13 12 6.18 15.94a20.59 20.59 0 0 0 1.83 1.53A6.27 6.27 0 0 1 34 59.27l-15 5a14.41 14.41 0 0 0-8.5 8 48.41 48.41 0 0 0-3.88 18.91A1.82 1.82 0 0 0 8.44 93h83.25a1.81 1.81 0 0 0 1.81-1.81 48.41 48.41 0 0 0-3.91-18.93zM33.91 36.41V23.75a12.41 12.41 0 0 1 6.82-11.11 20.78 20.78 0 0 1 18.75 0 12.38 12.38 0 0 1 6.82 11.1v12.67c0 12.16-8.4 17.7-16.2 17.7s-16.19-5.54-16.19-17.7zm-23.62 53a44.44 44.44 0 0 1 3.55-15.62 10.79 10.79 0 0 1 6.34-6l15-5a9.9 9.9 0 0 0 6.44-6.85 20.15 20.15 0 0 0 16.89 0A9.9 9.9 0 0 0 65 62.71l15 5a10.81 10.81 0 0 1 6.35 6 44.44 44.44 0 0 1 3.55 15.62z"/></symbol><symbol viewBox="-273 365 64 64" id="menu" xmlns="http://www.w3.org/2000/svg"><path d="M-271.4 412.6h60.8v6.1h-60.8v-6.1zm0-18.3h60.8v6.1h-60.8v-6.1zm0-18.2h60.8v6.1h-60.8v-6.1z"/></symbol><symbol id="offers-from-our-partners" viewBox="0 0 80 80" xmlns="http://www.w3.org/2000/svg"><defs><style>.avcls-2{fill:#020202}.avcls-3{fill:#050505}</style></defs><path class="avcls-2" d="M60.08 41.27l-6.19-9.78a3.8 3.8 0 0 1-.48-2.92 86.39 86.39 0 0 1-8.34-3.17c-4.19-1.87-7.06-1-10.14 1.48H23.85a3.69 3.69 0 0 1-.15 1.27l-3.27 11.11a3.76 3.76 0 0 1-1.42 2c.86.84 2.68 2.69 3.3 3.33 1 1.08 2.09 2.19 2.8 2.79 4.3 3.6 9.46 7.48 10.49 8.15a8.84 8.84 0 0 0 4.09 1.35 4 4 0 0 0 2.62-.77 3.67 3.67 0 0 0 2.63 0 4.57 4.57 0 0 0 2.4-2.22 4.37 4.37 0 0 0 2.89-.42 3.84 3.84 0 0 0 1.93-2 3.71 3.71 0 0 0 2.64-1A3.62 3.62 0 0 0 56.07 47l6.21-4a1.49 1.49 0 0 0 .14-.12 3.73 3.73 0 0 1-2.34-1.61zm-6.77 7.45a1.29 1.29 0 0 1-1.43.28.78.78 0 0 0-.2-.11l-2.75-2.67a1.09 1.09 0 0 0-1.83 1 1 1 0 0 0 .31.55l2.66 2.6a1.54 1.54 0 0 1-.87 1 1.83 1.83 0 0 1-1.76.07 1.15 1.15 0 0 0-.14-.17l-2.45-2.38a1 1 0 0 0-1.63.9.94.94 0 0 0 .28.49l2 1.91a2.19 2.19 0 0 1-1.35 1.72 1.21 1.21 0 0 1-1.33-.2 1 1 0 0 0-.25-.17l-2.07-2a1 1 0 0 0-1.38 0 1 1 0 0 0 0 1.37l1.56 1.51a2.38 2.38 0 0 1-1 .14 6.65 6.65 0 0 1-2.82-1c-.81-.53-5.89-4.32-10.27-8-.62-.52-3.59-3.53-4.53-4.51-.53-.56-1-1.08-1.42-1.47l3-10.44h8.78c-1.57 1.59-3.7 4.76-3.14 7.1a2.82 2.82 0 0 0 2 2.07A5.75 5.75 0 0 0 38 36a15.83 15.83 0 0 0 2.54-.89c1.32 1.24 3.1 2.68 5 4.19 3.39 2.75 7.23 5.86 8.1 7.66a1.35 1.35 0 0 1-.33 1.76zm1.69-3.9c-1.6-2.12-4.84-4.74-8-7.28-2.1-1.69-4.08-3.29-5.34-4.55a1.14 1.14 0 0 0-1.2-.27 32.76 32.76 0 0 0-4 1.59c-1.63 2.44-3.32 2.23-4.45 1.85-.36-.11-.42-.27-.46-.42-.24-1 1-3.37 2.55-4.94 3.75-3.75 6-5.11 10-3.29a94.61 94.61 0 0 0 8.9 3.36l6.9 10.79z"/><path d="M39.69 57.13a9.05 9.05 0 0 1-4.23-1.39c-1-.67-6.21-4.56-10.52-8.17-.72-.6-1.78-1.71-2.8-2.78-.61-.63-2.44-2.5-3.32-3.36l-.22-.21.25-.19a3.51 3.51 0 0 0 1.33-1.85l3.27-11.1a3.63 3.63 0 0 0 .14-1.19v-.28h11.25c3.45-2.77 6.45-3.19 10.34-1.45a87 87 0 0 0 8.31 3.16l.23.07-.06.24a3.56 3.56 0 0 0 .45 2.72l6.19 9.78a3.57 3.57 0 0 0 2.18 1.55l.48.11-.37.34a.87.87 0 0 1-.16.14l-6.08 3.9a3.93 3.93 0 0 1-1.35 3.5 4.07 4.07 0 0 1-2.64 1 4.22 4.22 0 0 1-2 2 4.78 4.78 0 0 1-2.87.48A4.78 4.78 0 0 1 45 56.31a3.9 3.9 0 0 1-2.67.08 4.34 4.34 0 0 1-2.64.74zM19.41 41.27c.93.93 2.55 2.57 3.09 3.13 1 1.08 2.08 2.18 2.78 2.77 4.29 3.59 9.44 7.46 10.47 8.13a8.51 8.51 0 0 0 3.94 1.3 3.73 3.73 0 0 0 2.45-.71l.12-.1.15.06a3.29 3.29 0 0 0 2.43 0 4.25 4.25 0 0 0 2.26-2.08l.09-.19h.2a4.21 4.21 0 0 0 2.72-.39 3.65 3.65 0 0 0 1.8-1.88l.07-.17h.19a3.54 3.54 0 0 0 2.46-.88 3.37 3.37 0 0 0 1.18-3.19v-.18l6-3.88a3.93 3.93 0 0 1-1.68-1.22l-5.23 3.36-.14-.2c-1.6-2.08-4.82-4.7-8-7.22-2.09-1.7-4.07-3.3-5.35-4.58a.91.91 0 0 0-.93-.21 33.19 33.19 0 0 0-3.92 1.52c-1.29 1.93-2.84 2.57-4.73 1.94-.47-.16-.58-.4-.63-.62-.27-1.1.95-3.53 2.61-5.19 3.89-3.88 6.18-5.2 10.35-3.34a90 90 0 0 0 8.86 3.34h.09l.07.12a4 4 0 0 1-.15-2c-1.77-.58-5-1.7-8.14-3.11-4.33-1.93-7.07-.82-9.86 1.44l-.07.06H24.12a4.42 4.42 0 0 1-.12 1.13l-.21.69h9.3l-.44.45C31.08 30.9 29 34 29.53 36.21a2.6 2.6 0 0 0 1.81 1.89 5.48 5.48 0 0 0 6.48-2.22l.07-.09h.1a13.19 13.19 0 0 0 2.27-.79l.37-.15.12.12c1.34 1.25 3.18 2.74 5 4.18C49.13 41.9 53 45 53.89 46.87a1.64 1.64 0 0 1-.41 2.05 1.53 1.53 0 0 1-1.75.29l-.15-.08-.09-.05-2.74-2.68a.81.81 0 0 0-.59-.23.82.82 0 0 0-.8 1 .76.76 0 0 0 .23.42l2.76 2.69v.14a1.81 1.81 0 0 1-1 1.18 2.05 2.05 0 0 1-2 0l-.05-.06-.1-.12-2.45-2.38a.71.71 0 1 0-1 1l2.06 2v.12a2.45 2.45 0 0 1-1.52 1.94 1.47 1.47 0 0 1-1.6-.26.91.91 0 0 0-.19-.13l-.07-.05-2.07-2a.7.7 0 0 0-1.18.65.72.72 0 0 0 .2.36l1.83 1.79-.36.15a2.64 2.64 0 0 1-1.07.16 6.83 6.83 0 0 1-3-1c-.82-.54-5.94-4.36-10.29-8-.64-.54-3.65-3.59-4.55-4.53-.51-.54-1-1-1.38-1.43a4.1 4.1 0 0 1-1.15 1.46zm1.53-1.73c.38.38.84.86 1.32 1.36 1 1.06 3.92 4 4.51 4.5 4.34 3.63 9.42 7.43 10.24 8a6.47 6.47 0 0 0 2.68.93h.44l-1.21-1.23a1.2 1.2 0 0 1-.35-.63 1.24 1.24 0 0 1 2.07-1.14l2 2a1.52 1.52 0 0 1 .28.19.93.93 0 0 0 1 .16 2 2 0 0 0 1.17-1.38l-1.87-1.82a1.26 1.26 0 0 1-.34-.63 1.22 1.22 0 0 1 .32-1.12 1.24 1.24 0 0 1 1.74 0l2.45 2.39a1.17 1.17 0 0 1 .15.16 1.66 1.66 0 0 0 1.45-.12 1.4 1.4 0 0 0 .7-.68L47.22 48a1.34 1.34 0 0 1 0-1.91 1.37 1.37 0 0 1 .95-.42 1.45 1.45 0 0 1 1 .39l2.71 2.63.22.12a1 1 0 0 0 1.09-.26 1.1 1.1 0 0 0 .28-1.42c-.84-1.74-4.65-4.83-8-7.55-1.74-1.41-3.53-2.86-4.87-4.1h-.05a16.57 16.57 0 0 1-2.29.81 6 6 0 0 1-7 2.32A3.09 3.09 0 0 1 29 36.34c-.54-2.34 1.41-5.34 2.81-6.89h-8zm19.91-7.15a1.41 1.41 0 0 1 1 .41c1.26 1.26 3.23 2.85 5.31 4.54 3.06 2.47 6.21 5 7.88 7.12l4.5-2.88-6.7-10.49A91.86 91.86 0 0 1 44 27.75c-3.81-1.75-5.87-.64-9.74 3.25-1.64 1.64-2.68 3.87-2.48 4.7 0 .08 0 .15.28.24 1 .35 2.61.55 4.15-1.75.16-.24 1.56-.81 4.16-1.7a1.34 1.34 0 0 1 .48-.1z"/><path class="avcls-3" d="M20.43 39.26l3.27-11.11a3.69 3.69 0 0 0 .15-1.27 3.79 3.79 0 0 0-2.72-3.45l-.47-.14a3.8 3.8 0 0 0-4.72 2.58L12.67 37a3.77 3.77 0 0 0 .31 2.9 3.81 3.81 0 0 0 2.26 1.83l.47.13a3.56 3.56 0 0 0 1.07.16 3.8 3.8 0 0 0 1.82-.47 4.15 4.15 0 0 0 .41-.27 3.76 3.76 0 0 0 1.42-2.02zm-2.22-.66a1.48 1.48 0 0 1-.72.89 1.44 1.44 0 0 1-1.13.12l-.46-.13a1.52 1.52 0 0 1-.89-.72 1.48 1.48 0 0 1-.12-1.13l3.27-11.11a1.47 1.47 0 0 1 .72-.88 1.4 1.4 0 0 1 .71-.19 1.52 1.52 0 0 1 .42.06l.46.14a1.49 1.49 0 0 1 1 1.85z"/><path d="M16.78 42.25a4.09 4.09 0 0 1-1.15-.16l-.46-.09a4.09 4.09 0 0 1-2.76-5.05l3.27-11.11A4.08 4.08 0 0 1 20.74 23l.46.13a4.08 4.08 0 0 1 2.91 3.69 4.18 4.18 0 0 1-.11 1.41l-3.28 11.1a4 4 0 0 1-1.52 2.13h-.06a2.92 2.92 0 0 1-.37.24 4.07 4.07 0 0 1-1.99.55zm2.81-18.85a3.53 3.53 0 0 0-3.4 2.54l-3.27 11.11a3.55 3.55 0 0 0 2.4 4.4l.46.13a3.55 3.55 0 0 0 2.69-.29 1.69 1.69 0 0 0 .31-.21h.07a3.51 3.51 0 0 0 1.33-1.85l3.27-11.1a3.63 3.63 0 0 0 .14-1.19 3.54 3.54 0 0 0-2.54-3.21l-.46-.14a3.45 3.45 0 0 0-1-.19zm-2.81 16.54a1.62 1.62 0 0 1-.49-.08l-.47-.13a1.77 1.77 0 0 1-1-.84 1.74 1.74 0 0 1-.14-1.34l3.27-11.1a1.74 1.74 0 0 1 2.17-1.19l.47.14a1.75 1.75 0 0 1 1.18 2.17l-3.31 11.11a1.77 1.77 0 0 1-1.68 1.26zm2.81-14.23a1.27 1.27 0 0 0-.59.16 1.18 1.18 0 0 0-.59.72L15.14 37.7a1.26 1.26 0 0 0 .1.93 1.22 1.22 0 0 0 .73.59l.46.14a1.23 1.23 0 0 0 1.57-.83l3.27-11.11a1.22 1.22 0 0 0-.83-1.52l-.47-.14a1.27 1.27 0 0 0-.38-.05z"/><path class="avcls-3" d="M66.92 37l-6.19-9.79A3.8 3.8 0 0 0 55.48 26l-.41.25a3.82 3.82 0 0 0-1.18 5.25l6.19 9.78a3.73 3.73 0 0 0 2.34 1.66 4.09 4.09 0 0 0 .85.09 3.82 3.82 0 0 0 2-.58l.41-.26A3.82 3.82 0 0 0 66.92 37zm-2.42 3.24l-.41.26A1.49 1.49 0 0 1 62 40l-6.19-9.78a1.5 1.5 0 0 1 .46-2.06l.41-.25a1.47 1.47 0 0 1 2.05.46L65 38.18a1.49 1.49 0 0 1-.5 2.06z"/><path d="M63.31 43.31a4.7 4.7 0 0 1-.91-.1v-.27l-.1.25a4 4 0 0 1-2.48-1.78l-6.19-9.78a4.08 4.08 0 0 1 1.3-5.63l.41-.26A4.1 4.1 0 0 1 61 27l6.18 9.78a4.08 4.08 0 0 1-1.26 5.62l-.41.26a4.06 4.06 0 0 1-2.2.65zm-5.8-17.66a3.55 3.55 0 0 0-1.89.55l-.41.26a3.52 3.52 0 0 0-1.55 2.17 3.56 3.56 0 0 0 .45 2.72l6.19 9.78a3.57 3.57 0 0 0 2.18 1.55 3.61 3.61 0 0 0 .83.1 3.52 3.52 0 0 0 1.88-.55l.41-.23a3.54 3.54 0 0 0 1.1-4.88l-6.19-9.82a3.5 3.5 0 0 0-2.22-1.56 3.46 3.46 0 0 0-.78-.09zM63.31 41a1.81 1.81 0 0 1-.4 0 1.74 1.74 0 0 1-1.09-.77l-6.19-9.79a1.76 1.76 0 0 1 .54-2.44l.41-.26a1.75 1.75 0 0 1 2.42.55L65.19 38a1.76 1.76 0 0 1-.55 2.42l-.41.26a1.7 1.7 0 0 1-.92.32zm-5.8-13a1.17 1.17 0 0 0-.65.19l-.41.26a1.21 1.21 0 0 0-.54.76 1.27 1.27 0 0 0 .16.93l6.19 9.78a1.24 1.24 0 0 0 1.69.39l.41-.26a1.23 1.23 0 0 0 .38-1.69l-6.19-9.79a1.19 1.19 0 0 0-.77-.54 1.24 1.24 0 0 0-.27-.03z"/><path d="M30.62 78.52a9.51 9.51 0 0 1-8.43-5l-.52-1a11.37 11.37 0 0 0-6.91-5l-1.1-.19a9.57 9.57 0 0 1-7.75-10.71l.15-1.1a11.32 11.32 0 0 0-2.64-8.12l-.77-.8a9.57 9.57 0 0 1 0-13.2l.77-.8a11.32 11.32 0 0 0 2.64-8.12l-.15-1.1a9.57 9.57 0 0 1 7.75-10.68l1.1-.19a11.37 11.37 0 0 0 6.91-5l.52-1a9.56 9.56 0 0 1 12.55-4.08l1 .49a11.37 11.37 0 0 0 8.54 0l1-.49a9.55 9.55 0 0 1 12.55 4.08l.52 1a11.37 11.37 0 0 0 6.91 5l1.1.19a9.57 9.57 0 0 1 7.75 10.68l-.11 1.1a11.32 11.32 0 0 0 2.6 8.12l.77.8a9.57 9.57 0 0 1 0 13.2l-.77.8a11.32 11.32 0 0 0-2.6 8.12l.15 1.1a9.57 9.57 0 0 1-7.79 10.68l-1.1.19a11.37 11.37 0 0 0-6.91 5l-.52 1a9.56 9.56 0 0 1-12.55 4.08l-1-.49a11.37 11.37 0 0 0-8.54 0l-1 .49a9.29 9.29 0 0 1-4.12.95zM40 73.29a13.07 13.07 0 0 1 5.57 1.13l1 .49a6.57 6.57 0 0 0 8.63-2.81l.53-1a14.32 14.32 0 0 1 9-6.55l1.1-.19A6.58 6.58 0 0 0 71.18 57L71 55.93a14.37 14.37 0 0 1 3.45-10.59l.77-.8a6.59 6.59 0 0 0 0-9.08l-.77-.8A14.38 14.38 0 0 1 71 24.06l.16-1.1a6.57 6.57 0 0 0-5.33-7.34l-1.1-.19a14.32 14.32 0 0 1-9-6.55l-.53-1a6.57 6.57 0 0 0-8.63-2.81l-1 .49a14.35 14.35 0 0 1-11.14 0l-1-.49a6.57 6.57 0 0 0-8.62 2.83l-.52 1a14.37 14.37 0 0 1-9 6.55l-1.09.19A6.58 6.58 0 0 0 8.84 23L9 24.06a14.34 14.34 0 0 1-3.45 10.6l-.77.8a6.59 6.59 0 0 0 0 9.08l.77.8A14.37 14.37 0 0 1 9 55.93L8.84 57a6.58 6.58 0 0 0 5.34 7.34l1.09.19a14.37 14.37 0 0 1 9 6.55l.52 1a6.55 6.55 0 0 0 5.81 3.46 6.37 6.37 0 0 0 2.82-.65l1-.49A13.1 13.1 0 0 1 40 73.29z"/></symbol><symbol viewBox="0 0 80 80" id="offers-from-our-partners-old" xmlns="http://www.w3.org/2000/svg"><defs><path id="awa" d="M0 .19H62.97V78H0z"/></defs><g fill="none" fill-rule="evenodd"><path d="M31.056 41.413c3.67 1.446 6.77 5.471 6.77 8.79 0 1.227-.425 2.17-1.23 2.724-1.057.727-2.686.752-4.469.07-2.46-.944-4.751-3.06-5.98-5.521a1.478 1.478 0 1 0-2.646 1.32c1.411 2.826 3.842 5.204 6.618 6.54v4.932a1.478 1.478 0 0 0 2.958 0v-3.963a8.75 8.75 0 0 0 1.476.137c1.396 0 2.675-.361 3.719-1.08 1.619-1.114 2.512-2.946 2.512-5.16 0-4.56-3.797-9.63-8.644-11.54-3.72-1.465-6.86-5.544-6.86-8.908 0-.856.21-2.02 1.222-2.703 1.073-.723 2.728-.716 4.54.019 2.396.969 4.645 3.066 5.872 5.475a1.479 1.479 0 1 0 2.633-1.343c-1.4-2.75-3.775-5.092-6.47-6.444V19.64a1.479 1.479 0 1 0-2.958 0v4.082c-1.992-.38-3.844-.084-5.27.877-1.63 1.099-2.527 2.93-2.527 5.154 0 4.609 3.837 9.73 8.734 11.66" fill="#D31145"/><g transform="translate(8 1)"><mask id="awb" fill="#fff"><use xlink:href="#awa"/></mask><path d="M60.012 57.636H49.12V18.647a1.48 1.48 0 0 0-.968-1.387L9.78 3.146h50.232v54.49zM46.163 74.403L2.957 58.511V3.786l43.206 15.892v54.725zM61.491.189H1.478c-.038 0-.075.009-.114.012-.04.003-.08.006-.12.012a1.38 1.38 0 0 0-.232.058C.985.281.958.286.932.296.827.338.73.39.64.451L.633.456C.62.465.61.476.599.486a1.447 1.447 0 0 0-.202.18C.372.693.35.721.328.75a1.615 1.615 0 0 0-.125.183C.184.964.167.995.15 1.028c-.033.07-.06.144-.082.22-.009.03-.02.058-.028.089-.024.106-.04.216-.04.331V59.542c0 .62.387 1.174.968 1.388L47.13 77.91a1.484 1.484 0 0 0 1.356-.175c.397-.277.633-.73.633-1.213v-15.93h12.37c.817 0 1.479-.66 1.479-1.478V1.668c0-.817-.662-1.479-1.478-1.479z" fill="#D31145" mask="url(#awb)"/></g></g></symbol><symbol viewBox="0 0 100 100" id="profile" xmlns="http://www.w3.org/2000/svg"><path d="M50 22.9c-4.6 0-9.1 1.8-12.4 5.1-3.4 3.2-5.3 7.7-5.3 12.4-.1 4.6 1.7 9 5 12.3 3.1 3.3 7.4 5.3 12 5.4h1.3c9.5-.3 17.1-8.2 17-17.7 0-4.7-1.9-9.2-5.3-12.4-3.2-3.3-7.7-5.2-12.3-5.1m28.5 57.3c-1.8-4.6-4.3-9-7.4-12.9-2.9-3.6-6.1-5.5-9.6-5.5-1.8 1-3.7 1.7-5.7 2.1-1.9.3-3.8.5-5.8.5-1.9 0-3.9-.2-5.8-.7-1.8-.5-3.6-1.1-5.2-2-3.4 0-6.6 1.8-9.5 5.4-1.9 2.4-3.5 4.9-4.9 7.6L23.1 78c-.3.7-.7 1.4-1 2.2 0 0-.4.6-1.1 2C3.2 66.2 1.7 38.8 17.7 21s43.4-19.3 61.2-3.3S98.2 61 82.2 78.9c-1 1.1-2.1 2.2-3.2 3.2l-.5-1.9zM3 49.9c0 26 21 47 47 47s47-21 47-47-21-47-47-47c-25.9 0-47 21-47 47z"/></symbol><symbol viewBox="0 0 100 100" id="savings" xmlns="http://www.w3.org/2000/svg"><path d="M49.66 48.22c-5.3 0-9.61-3.26-9.61-7.28s4.31-7.27 9.61-7.27A10.48 10.48 0 0 1 58 37.38a1.76 1.76 0 0 0 2.48.36 1.78 1.78 0 0 0 .36-2.48 13.53 13.53 0 0 0-9.44-5v-6a1.77 1.77 0 0 0-3.54 0v6C41.47 31 36.5 35.47 36.5 40.94c0 6 5.91 10.82 13.16 10.82 5.3 0 9.61 3.27 9.61 7.28s-4.27 7.28-9.61 7.28a10.41 10.41 0 0 1-8.46-3.84 1.78 1.78 0 0 0-2.47-.41 1.77 1.77 0 0 0-.41 2.47 13.62 13.62 0 0 0 9.57 5.22v5.76a1.77 1.77 0 1 0 3.54 0v-5.77C57.85 69 62.82 64.51 62.82 59c0-5.93-5.91-10.78-13.16-10.78z"/><path d="M49.66 13.32a36.57 36.57 0 1 0 36.56 36.57 36.61 36.61 0 0 0-36.56-36.57zm0 69.59a33 33 0 1 1 33-33 33.06 33.06 0 0 1-33 33z"/><path d="M49.66 2.89a47 47 0 1 0 47 47 47 47 0 0 0-47-47zm0 90.45a43.46 43.46 0 1 1 43.46-43.45 43.51 43.51 0 0 1-43.46 43.45z"/></symbol><symbol viewBox="0 0 80 80" id="savings-from-our-brands-old" xmlns="http://www.w3.org/2000/svg"><defs><path id="aza" d="M0 .727h78v38.684H0z"/><path id="azc" d="M0 .184h78v38.682H0z"/></defs><g fill="none" fill-rule="evenodd"><g transform="translate(1 37)"><mask id="azb" fill="#fff"><use xlink:href="#aza"/></mask><path d="M74.144 7.8L53.79 28.98c-.092.1-.186.198-.278.293-3.065 3.151-7.718 4.488-12.133 3.494l-17.197-3.873a1.643 1.643 0 0 0-1.503.423l-6.407 6.2L4.074 24.428l13.14-12.114c.12-.1.24-.2.363-.295 3.35-2.64 7.87-3.426 12.09-2.095l2.057.646c.407.13.849.316 1.316.513 1.095.46 2.333.982 3.67.982l11.257.152c1.04.137 2.663.636 2.509 2.436a2.932 2.932 0 0 1-.347 1.156 2.923 2.923 0 0 1-2.464 1.53l-16.83.322a1.642 1.642 0 0 0-1.611 1.673c.018.907.799 1.604 1.673 1.611l16.852-.322a6.222 6.222 0 0 0 5.1-2.96L71.356 4.286a2.27 2.27 0 0 1 2.436.171c.526.388.85.962.914 1.613a2.232 2.232 0 0 1-.562 1.728m1.6-5.983a5.555 5.555 0 0 0-6.101-.333 1.378 1.378 0 0 0-.137.088l-15.9 11.492c-.562-2.214-2.528-3.79-5.338-4.118a1.871 1.871 0 0 0-.167-.01L36.732 8.78c-.695 0-1.53-.351-2.416-.726-.516-.216-1.051-.442-1.606-.617l-2.057-.648C25.398 5.138 19.75 6.125 15.544 9.44c-.15.119-.3.24-.5.412L.53 23.229a1.643 1.643 0 0 0 .008 2.422l14.664 13.332a1.638 1.638 0 0 0 2.246-.035l6.877-6.654 16.332 3.677c5.524 1.247 11.353-.444 15.21-4.41.117-.119.232-.241.319-.336l20.353-21.179a5.569 5.569 0 0 0 1.436-4.291 5.573 5.573 0 0 0-2.231-3.939" fill="#D31145" mask="url(#azb)"/></g><g transform="translate(1 4)"><mask id="azd" fill="#fff"><use xlink:href="#azc"/></mask><path d="M3.856 31.794L24.21 10.615c.092-.1.187-.2.28-.295 2.395-2.462 5.758-3.818 9.222-3.818.968 0 1.945.106 2.911.324l17.197 3.873a1.648 1.648 0 0 0 1.502-.422l6.408-6.2 12.198 11.088L60.784 27.28c-.12.1-.24.2-.36.294-3.351 2.64-7.87 3.422-12.09 2.094l-2.057-.647c-.408-.128-.85-.314-1.318-.511-1.094-.462-2.331-.983-3.668-.983l-11.257-.153c-1.04-.135-2.664-.634-2.51-2.436.034-.387.141-.753.309-1.081.014-.025.026-.05.039-.076a2.924 2.924 0 0 1 2.464-1.53l16.83-.32a1.641 1.641 0 0 0 1.61-1.673c-.017-.906-.767-1.654-1.672-1.61l-16.853.321a6.222 6.222 0 0 0-5.1 2.96L6.646 35.308a2.275 2.275 0 0 1-2.437-.172 2.25 2.25 0 0 1-.913-1.613 2.232 2.232 0 0 1 .561-1.728m-1.6 5.983a5.555 5.555 0 0 0 6.102.333c.047-.027.093-.056.136-.087l15.9-11.493c.562 2.214 2.529 3.79 5.339 4.118.055.006.11.01.167.01l11.368.154c.695 0 1.53.352 2.415.725.517.218 1.053.443 1.608.618l2.056.647c5.257 1.654 10.905.665 15.112-2.65.15-.119.3-.24.498-.41l14.514-13.378a1.643 1.643 0 0 0-.008-2.422L62.799.611a1.643 1.643 0 0 0-2.247.034L53.675 7.3 37.344 3.62c-5.523-1.242-11.352.445-15.211 4.411-.116.118-.23.24-.318.336L1.461 29.548a5.567 5.567 0 0 0-1.435 4.29 5.576 5.576 0 0 0 2.23 3.94" fill="#D31145" mask="url(#azd)"/></g></g></symbol><symbol viewBox="0 0 80 80" id="savings-on-our-brands" xmlns="http://www.w3.org/2000/svg"><path d="M34.51 80.08a6.1 6.1 0 0 1-3.84-1.35l-27.45-22a6.15 6.15 0 0 1-1-8.63l35.6-44.4A10.43 10.43 0 0 1 45.19.08h.06l19.62 1h.06a6.92 6.92 0 0 1 6.6 5.34l5.3 19a10.43 10.43 0 0 1-1.93 7.94L39.3 77.78a6.12 6.12 0 0 1-4.79 2.3zm10.69-77a7.46 7.46 0 0 0-5 2.47L4.64 50a3.11 3.11 0 0 0 .48 4.36l27.45 22a3.11 3.11 0 0 0 4.36-.48l35.6-44.4a7.47 7.47 0 0 0 1.33-5.38l-5.29-19a3.8 3.8 0 0 0-3.7-3h-.05z"/><path d="M60.53 17.67a5.57 5.57 0 1 1 5.57-5.57 5.57 5.57 0 0 1-5.57 5.57zm0-8.09a2.53 2.53 0 1 0 2.53 2.52 2.52 2.52 0 0 0-2.53-2.52zM27 46.67a5.57 5.57 0 1 1 5.57-5.56A5.57 5.57 0 0 1 27 46.67zm0-8.09a2.53 2.53 0 1 0 2.53 2.53A2.52 2.52 0 0 0 27 38.58zM47.24 48.08a5.61 5.61 0 0 1-5-3.18 5.57 5.57 0 1 1 7.41 2.64 5.48 5.48 0 0 1-2.41.54zm0-8.09a2.52 2.52 0 0 0-2.38 1.67 2.49 2.49 0 0 0 .1 1.93 2.54 2.54 0 0 0 1.43 1.3 2.54 2.54 0 0 0 3.23-1.53 2.49 2.49 0 0 0-.1-1.93A2.48 2.48 0 0 0 47.24 40zM37.07 60.2a1.52 1.52 0 0 1-1.52-1.52V28.25a1.52 1.52 0 0 1 3 0v30.43a1.52 1.52 0 0 1-1.48 1.52z"/></symbol><symbol viewBox="0 0 100 100" id="website" xmlns="http://www.w3.org/2000/svg"><path d="M85.39 12.93H14.22a2 2 0 0 0-2 2v46.42a1.94 1.94 0 0 0 2 1.94h71.17a2 2 0 0 0 2-1.94V14.88a2 2 0 0 0-2-1.95zm-2 46.47H16.16V16.82h67.28z"/><path d="M88 4.26H11.62a8.29 8.29 0 0 0-8.28 8.29v51.13A8.29 8.29 0 0 0 11.62 72h22.22A27 27 0 0 0 23 93.56a2 2 0 0 0 1.95 2H75a1.94 1.94 0 0 0 1.94-2A27 27 0 0 0 66.1 72H88a8.3 8.3 0 0 0 8.29-8.28V12.55A8.3 8.3 0 0 0 88 4.26zm4.39 59.42A4.39 4.39 0 0 1 88 68.06H58.42a2 2 0 0 0-.66 3.79A23.11 23.11 0 0 1 73 91.61H27a23.12 23.12 0 0 1 15.17-19.76 2 2 0 0 0-.66-3.79H11.62a4.39 4.39 0 0 1-4.39-4.38V12.55a4.4 4.4 0 0 1 4.39-4.39H88a4.4 4.4 0 0 1 4.39 4.39z"/><path d="M46.64 49.62a1.79 1.79 0 0 0 1.64 1.09A1.79 1.79 0 0 0 50 49.54L52.36 43l7.26 7.25a1.78 1.78 0 0 0 2.52-2.52l-7.26-7.25 6.52-2.38a1.78 1.78 0 0 0 .08-3.31l-21.73-9.23a1.78 1.78 0 0 0-2.33 2.33zM56 36.31L51.35 38a1.73 1.73 0 0 0-1 .49 1.78 1.78 0 0 0-.5 1l-1.7 4.61-5.73-13.54z"/></symbol></svg>